<svg width="512" height="450" viewBox="0 0 512 450" fill="none" xmlns="http://www.w3.org/2000/svg">
<path d="M484.096 137.412H455.403V40.4428C455.403 18.2149 437.319 0.131958 415.091 0.131958H67.7557C45.5278 0.131958 27.4449 18.2149 27.4449 40.4428V286.552C27.4449 295.811 30.7089 304.515 36.1919 311.449H12.9789C5.82198 311.448 0 317.295 0 324.48V343.508C0 361.798 14.7689 376.676 32.9219 376.676H218.924C223.067 376.676 226.424 373.319 226.424 369.177C226.424 365.035 223.067 361.677 218.924 361.677H32.9219C23.0399 361.677 14.9999 353.527 14.9999 343.508V326.448H330.96V361.677H253.924C249.781 361.677 246.424 365.035 246.424 369.177C246.424 373.319 249.781 376.676 253.924 376.676H330.96V421.964C330.96 437.351 343.478 449.869 358.864 449.869H484.095C499.482 449.869 511.999 437.351 511.999 421.964C511.999 410.502 511.999 173.517 511.999 165.317C512 149.93 499.482 137.412 484.096 137.412V137.412ZM330.96 311.448H63.2198C51.3378 309.269 42.4458 298.664 42.4458 286.551V40.4428C42.4458 26.4859 53.7998 15.1319 67.7567 15.1319H415.092C429.049 15.1319 440.404 26.4859 440.404 40.4428V137.413H425.927C425.927 126.924 425.927 54.2847 425.927 42.7738C425.927 35.3928 419.922 29.3868 412.541 29.3868C410.498 29.3868 80.7357 29.3868 70.3087 29.3868C62.9268 29.3868 56.9218 35.3918 56.9218 42.7738V283.853C56.9218 291.234 62.9268 297.24 70.3087 297.24H330.961V311.448H330.96ZM410.926 44.3858V64.2987H110.188V44.3858H410.926ZM95.1876 44.3858V64.2987H71.9207V44.3858H95.1876ZM330.96 165.316V282.239H71.9207V79.2987H410.926V137.412H358.865C343.478 137.412 330.96 149.93 330.96 165.316ZM345.96 194.761H361.041V209.779H345.96V194.761ZM497 421.964C497 429.08 491.211 434.869 484.096 434.869H358.864C351.749 434.869 345.96 429.08 345.96 421.964V400.469H497V421.964ZM497 385.469H345.96C345.96 324.245 345.96 285.94 345.96 224.779H497V385.469ZM497 209.779H376.041V194.761H497V209.779ZM497 179.761C489.345 179.761 352.786 179.761 345.96 179.761V165.316C345.96 158.201 351.749 152.412 358.864 152.412H484.095C491.21 152.412 496.999 158.201 496.999 165.316V179.761H497Z" fill="url(#paint0_linear)"/>
<path d="M413.508 423.591H429.451C433.594 423.591 436.951 420.233 436.951 416.091C436.951 411.949 433.594 408.591 429.451 408.591H413.508C409.365 408.591 406.008 411.949 406.008 416.091C406.008 420.233 409.365 423.591 413.508 423.591Z" fill="url(#paint1_linear)"/>
<path d="M266.171 168.078L233.987 146.133C223.802 139.187 209.97 146.495 209.97 158.824V202.715C209.97 215.041 223.797 222.353 233.987 215.406L266.171 193.461C275.107 187.368 275.105 174.169 266.171 168.078ZM257.72 181.068L225.536 203.014C225.439 203.079 225.356 203.137 225.163 203.035C224.971 202.933 224.971 202.832 224.971 202.715V158.824C224.971 158.707 224.971 158.606 225.163 158.504C225.239 158.464 225.298 158.448 225.348 158.448C225.424 158.448 225.478 158.485 225.536 158.525L257.72 180.47C257.787 180.516 257.878 180.578 257.878 180.769C257.878 180.961 257.787 181.023 257.72 181.068Z" fill="url(#paint2_linear)"/>
<path d="M236.425 110.552C197.707 110.552 166.207 142.052 166.207 180.769C166.207 219.486 197.707 250.986 236.425 250.986C275.143 250.986 306.642 219.487 306.642 180.769C306.642 142.051 275.143 110.552 236.425 110.552V110.552ZM236.425 235.987C205.978 235.987 181.207 211.217 181.207 180.77C181.207 150.323 205.978 125.553 236.425 125.553C266.871 125.553 291.642 150.324 291.642 180.77C291.642 211.216 266.871 235.987 236.425 235.987Z" fill="url(#paint3_linear)"/>
<path d="M419.905 273.175C410.378 266.679 397.483 273.542 397.483 285.025V323.225C397.483 334.802 410.457 341.517 419.906 335.074L447.916 315.974C456.26 310.286 456.258 297.963 447.917 292.275L419.905 273.175ZM412.483 321.98V286.269L438.669 304.125L412.483 321.98Z" fill="url(#paint4_linear)"/>
<path d="M421.48 366.21C447.579 366.21 471.056 349.716 479.9 325.167C481.304 321.27 479.284 316.973 475.386 315.569C471.49 314.167 467.192 316.186 465.788 320.083C459.08 338.701 441.273 351.21 421.479 351.21C395.516 351.21 374.394 330.087 374.394 304.125C374.394 278.163 395.516 257.04 421.479 257.04C442.105 257.04 460.145 270.242 466.371 289.891C467.621 293.84 471.839 296.027 475.785 294.776C479.734 293.525 481.921 289.31 480.67 285.361C472.462 259.45 448.675 242.041 421.48 242.041C387.247 242.041 359.395 269.893 359.395 304.126C359.395 338.359 387.247 366.21 421.48 366.21Z" fill="url(#paint5_linear)"/>
<defs>
<linearGradient id="paint0_linear" x1="255.999" y1="0.131958" x2="255.999" y2="449.869" gradientUnits="userSpaceOnUse">
<stop stop-color="#E383F9"/>
<stop offset="1" stop-color="#81D4FA"/>
</linearGradient>
<linearGradient id="paint1_linear" x1="421.48" y1="408.591" x2="421.48" y2="423.591" gradientUnits="userSpaceOnUse">
<stop stop-color="#E383F9"/>
<stop offset="1" stop-color="#81D4FA"/>
</linearGradient>
<linearGradient id="paint2_linear" x1="241.421" y1="143.442" x2="241.421" y2="218.097" gradientUnits="userSpaceOnUse">
<stop stop-color="#E383F9"/>
<stop offset="1" stop-color="#81D4FA"/>
</linearGradient>
<linearGradient id="paint3_linear" x1="236.425" y1="110.552" x2="236.425" y2="250.986" gradientUnits="userSpaceOnUse">
<stop stop-color="#E383F9"/>
<stop offset="1" stop-color="#81D4FA"/>
</linearGradient>
<linearGradient id="paint4_linear" x1="425.829" y1="270.662" x2="425.829" y2="337.578" gradientUnits="userSpaceOnUse">
<stop stop-color="#E383F9"/>
<stop offset="1" stop-color="#81D4FA"/>
</linearGradient>
<linearGradient id="paint5_linear" x1="420.208" y1="242.041" x2="420.208" y2="366.21" gradientUnits="userSpaceOnUse">
<stop stop-color="#E383F9"/>
<stop offset="1" stop-color="#81D4FA"/>
</linearGradient>
</defs>
</svg>
