<svg width="512" height="512" viewBox="0 0 512 512" fill="none" xmlns="http://www.w3.org/2000/svg">
<path d="M497 26H15C6.716 26 0 32.716 0 41V381C0 389.284 6.716 396 15 396H196V456H181C172.716 456 166 462.716 166 471C166 479.284 172.716 486 181 486H331C339.284 486 346 479.284 346 471C346 462.716 339.284 456 331 456H316V396H497C505.284 396 512 389.284 512 381V41C512 32.716 505.284 26 497 26ZM482 56V296H30V56H482ZM286 456H226V396H286V456ZM30 366V326H482V366H30Z" fill="url(#paint0_linear)"/>
<path d="M223.381 258.012C225.199 258.736 227.075 259.078 228.92 259.078C234.884 259.078 240.524 255.497 242.862 249.618L297.012 113.471C300.074 105.774 296.315 97.051 288.617 93.99C280.919 90.927 272.197 94.687 269.136 102.385L214.986 238.533C211.925 246.229 215.684 254.95 223.381 258.012V258.012Z" fill="url(#paint1_linear)"/>
<path d="M335.557 250.526C337.924 251.898 340.51 252.549 343.061 252.549C348.238 252.549 353.274 249.866 356.055 245.065L392.418 182.288C395.159 177.556 395.108 171.708 392.285 167.025L355.922 106.71C351.645 99.615 342.427 97.332 335.331 101.608C328.236 105.885 325.952 115.104 330.229 122.199L362.015 174.923L330.096 230.029C325.943 237.196 328.388 246.374 335.557 250.526V250.526Z" fill="url(#paint2_linear)"/>
<path d="M155.945 245.065C158.727 249.867 163.762 252.549 168.939 252.549C171.49 252.549 174.077 251.898 176.443 250.526C183.611 246.374 186.056 237.196 181.904 230.028L149.985 174.922L181.771 122.198C186.048 115.103 183.764 105.885 176.669 101.607C169.573 97.329 160.355 99.614 156.078 106.709L119.715 167.024C116.892 171.707 116.841 177.555 119.582 182.287L155.945 245.065Z" fill="url(#paint3_linear)"/>
<defs>
<linearGradient id="paint0_linear" x1="256" y1="26" x2="256" y2="486" gradientUnits="userSpaceOnUse">
<stop stop-color="#E383F9"/>
<stop offset="1" stop-color="#81D4FA"/>
</linearGradient>
<linearGradient id="paint1_linear" x1="255.999" y1="92.9235" x2="255.999" y2="259.078" gradientUnits="userSpaceOnUse">
<stop stop-color="#E383F9"/>
<stop offset="1" stop-color="#81D4FA"/>
</linearGradient>
<linearGradient id="paint2_linear" x1="361.256" y1="99.4525" x2="361.256" y2="252.549" gradientUnits="userSpaceOnUse">
<stop stop-color="#E383F9"/>
<stop offset="1" stop-color="#81D4FA"/>
</linearGradient>
<linearGradient id="paint3_linear" x1="150.744" y1="99.4506" x2="150.744" y2="252.549" gradientUnits="userSpaceOnUse">
<stop stop-color="#E383F9"/>
<stop offset="1" stop-color="#81D4FA"/>
</linearGradient>
</defs>
</svg>
